<?xml version="1.0" encoding="UTF-8" standalone="no"?>
<svg xmlns="http://www.w3.org/2000/svg" width="64" height="64" viewBox="0 0 64 64">
  <!-- Solid background -->
  <circle cx="32" cy="32" r="32" fill="#b71c1c" />
  
  <!-- Drone body - larger, more prominent -->
  <path d="M32,14 L50,32 L32,50 L14,32 Z" fill="white" />
  
  <!-- Drone center chassis -->
  <circle cx="32" cy="32" r="8" fill="#b71c1c" stroke="white" stroke-width="3" />
  
  <!-- Drone arms -->
  <line x1="20" y1="20" x2="28" y2="28" stroke="#b71c1c" stroke-width="4" stroke-linecap="round" />
  <line x1="44" y1="20" x2="36" y2="28" stroke="#b71c1c" stroke-width="4" stroke-linecap="round" />
  <line x1="20" y1="44" x2="28" y2="36" stroke="#b71c1c" stroke-width="4" stroke-linecap="round" />
  <line x1="44" y1="44" x2="36" y2="36" stroke="#b71c1c" stroke-width="4" stroke-linecap="round" />
  
  <!-- Propellers - larger -->
  <circle cx="17" cy="17" r="5" fill="white" stroke="#b71c1c" stroke-width="1" />
  <circle cx="47" cy="17" r="5" fill="white" stroke="#b71c1c" stroke-width="1" />
  <circle cx="17" cy="47" r="5" fill="white" stroke="#b71c1c" stroke-width="1" />
  <circle cx="47" cy="47" r="5" fill="white" stroke="#b71c1c" stroke-width="1" />
  
  <!-- Propeller blades -->
  <line x1="17" y1="12" x2="17" y2="22" stroke="white" stroke-width="2" />
  <line x1="12" y1="17" x2="22" y2="17" stroke="white" stroke-width="2" />
  
  <line x1="47" y1="12" x2="47" y2="22" stroke="white" stroke-width="2" />
  <line x1="42" y1="17" x2="52" y2="17" stroke="white" stroke-width="2" />
  
  <line x1="17" y1="42" x2="17" y2="52" stroke="white" stroke-width="2" />
  <line x1="12" y1="47" x2="22" y2="47" stroke="white" stroke-width="2" />
  
  <line x1="47" y1="42" x2="47" y2="52" stroke="white" stroke-width="2" />
  <line x1="42" y1="47" x2="52" y2="47" stroke="white" stroke-width="2" />
</svg>
